<mxfile host="app.diagrams.net" modified="2020-11-25T11:59:58.193Z" agent="5.0 (Windows NT 10.0; Win64; x64) AppleWebKit/537.36 (KHTML, like Gecko) Chrome/86.0.4240.183 Safari/537.36 OPR/72.0.3815.320" etag="EDbIrd_A0lRzaL7c_dT7" version="13.9.8" type="github" pages="2">
  <diagram name="Page-1" id="e7e014a7-5840-1c2e-5031-d8a46d1fe8dd">
    <mxGraphModel dx="2406" dy="738" grid="1" gridSize="10" guides="1" tooltips="1" connect="1" arrows="1" fold="1" page="1" pageScale="1" pageWidth="1169" pageHeight="826" background="#ffffff" math="0" shadow="0">
      <root>
        <mxCell id="0" />
        <mxCell id="1" parent="0" />
        <mxCell id="3" value="Альтернативное направление" style="swimlane;whiteSpace=wrap" parent="1" vertex="1">
          <mxGeometry x="540" y="140" width="280" height="742" as="geometry" />
        </mxCell>
        <mxCell id="16" value="Клиент получает&#xa;уведомление об &#xa;оффлайн-оплате" style="" parent="3" vertex="1">
          <mxGeometry x="85" y="360" width="110" height="50" as="geometry" />
        </mxCell>
        <mxCell id="2" value="Нормальное направление" style="swimlane;whiteSpace=wrap" parent="3" vertex="1">
          <mxGeometry x="-375.5" width="375.5" height="742" as="geometry" />
        </mxCell>
        <mxCell id="5" value="" style="ellipse;shape=startState;fillColor=#000000;strokeColor=#ff0000;" parent="2" vertex="1">
          <mxGeometry x="169" y="40" width="30" height="30" as="geometry" />
        </mxCell>
        <mxCell id="6" value="" style="edgeStyle=elbowEdgeStyle;elbow=horizontal;verticalAlign=bottom;endArrow=open;endSize=8;strokeColor=#FF0000;endFill=1;rounded=0" parent="2" source="5" target="7" edge="1">
          <mxGeometry x="100" y="40" as="geometry">
            <mxPoint x="115" y="110" as="targetPoint" />
          </mxGeometry>
        </mxCell>
        <mxCell id="7" value="Выбрать способ &#xa;оплаты" style="" parent="2" vertex="1">
          <mxGeometry x="130" y="102" width="110" height="50" as="geometry" />
        </mxCell>
        <mxCell id="8" value="Ввести платежные &#xa;данные" style="" parent="2" vertex="1">
          <mxGeometry x="129" y="275" width="110" height="50" as="geometry" />
        </mxCell>
        <mxCell id="9" value="" style="endArrow=open;strokeColor=#FF0000;endFill=1;rounded=0" parent="2" source="payfzRqC4_l33kHzJgeO-44" target="8" edge="1">
          <mxGeometry relative="1" as="geometry" />
        </mxCell>
        <mxCell id="payfzRqC4_l33kHzJgeO-53" style="edgeStyle=orthogonalEdgeStyle;rounded=0;orthogonalLoop=1;jettySize=auto;html=1;exitX=0.5;exitY=1;exitDx=0;exitDy=0;entryX=0.5;entryY=0;entryDx=0;entryDy=0;labelBackgroundColor=#FF0000;strokeColor=#FF0000;fontColor=#FF0000;" parent="2" source="10" target="payfzRqC4_l33kHzJgeO-52" edge="1">
          <mxGeometry relative="1" as="geometry" />
        </mxCell>
        <mxCell id="10" value="Менеджер &#xa;обращается к &#xa;платежному шлюзу" style="" parent="2" vertex="1">
          <mxGeometry x="130" y="452" width="110" height="50" as="geometry" />
        </mxCell>
        <mxCell id="11" value="" style="endArrow=open;strokeColor=#FF0000;endFill=1;rounded=0;entryX=0.5;entryY=0;entryDx=0;entryDy=0;" parent="2" source="8" target="payfzRqC4_l33kHzJgeO-49" edge="1">
          <mxGeometry relative="1" as="geometry" />
        </mxCell>
        <mxCell id="payfzRqC4_l33kHzJgeO-41" value="Клиент авторизирован" style="text;html=1;strokeColor=none;fillColor=none;align=center;verticalAlign=middle;whiteSpace=wrap;rounded=0;" parent="2" vertex="1">
          <mxGeometry x="205.5" y="40" width="110" height="20" as="geometry" />
        </mxCell>
        <mxCell id="payfzRqC4_l33kHzJgeO-44" value="" style="rhombus;whiteSpace=wrap;html=1;" parent="2" vertex="1">
          <mxGeometry x="130" y="182" width="110" height="50" as="geometry" />
        </mxCell>
        <mxCell id="payfzRqC4_l33kHzJgeO-45" value="" style="endArrow=open;strokeColor=#FF0000;endFill=1;rounded=0" parent="2" source="7" target="payfzRqC4_l33kHzJgeO-44" edge="1">
          <mxGeometry relative="1" as="geometry">
            <mxPoint x="278.5" y="288" as="sourcePoint" />
            <mxPoint x="278.5" y="388" as="targetPoint" />
          </mxGeometry>
        </mxCell>
        <mxCell id="payfzRqC4_l33kHzJgeO-42" value="Менеджер авторизирован" style="text;html=1;strokeColor=none;fillColor=none;align=center;verticalAlign=middle;whiteSpace=wrap;rounded=0;" parent="2" vertex="1">
          <mxGeometry x="45.5" y="40" width="110" height="20" as="geometry" />
        </mxCell>
        <mxCell id="payfzRqC4_l33kHzJgeO-50" style="edgeStyle=orthogonalEdgeStyle;rounded=0;orthogonalLoop=1;jettySize=auto;html=1;exitX=0.5;exitY=1;exitDx=0;exitDy=0;entryX=0.5;entryY=0;entryDx=0;entryDy=0;labelBackgroundColor=#FF0000;strokeColor=#FF0000;fontColor=#FF0000;" parent="2" source="payfzRqC4_l33kHzJgeO-49" target="10" edge="1">
          <mxGeometry relative="1" as="geometry" />
        </mxCell>
        <mxCell id="payfzRqC4_l33kHzJgeO-49" value="" style="rhombus;whiteSpace=wrap;html=1;" parent="2" vertex="1">
          <mxGeometry x="119" y="360" width="130" height="50" as="geometry" />
        </mxCell>
        <mxCell id="payfzRqC4_l33kHzJgeO-58" style="edgeStyle=orthogonalEdgeStyle;rounded=0;orthogonalLoop=1;jettySize=auto;html=1;exitX=0.5;exitY=1;exitDx=0;exitDy=0;entryX=0.5;entryY=0;entryDx=0;entryDy=0;labelBackgroundColor=#FF0000;strokeColor=#FF0000;fontColor=#FF0000;" parent="2" source="payfzRqC4_l33kHzJgeO-52" target="payfzRqC4_l33kHzJgeO-57" edge="1">
          <mxGeometry relative="1" as="geometry" />
        </mxCell>
        <mxCell id="payfzRqC4_l33kHzJgeO-52" value="" style="rhombus;whiteSpace=wrap;html=1;" parent="2" vertex="1">
          <mxGeometry x="131.75" y="530" width="117.25" height="50" as="geometry" />
        </mxCell>
        <mxCell id="payfzRqC4_l33kHzJgeO-59" style="edgeStyle=orthogonalEdgeStyle;rounded=0;orthogonalLoop=1;jettySize=auto;html=1;exitX=0.5;exitY=1;exitDx=0;exitDy=0;entryX=0.5;entryY=0;entryDx=0;entryDy=0;labelBackgroundColor=#FF0000;strokeColor=#FF0000;fontColor=#FF0000;" parent="2" source="payfzRqC4_l33kHzJgeO-57" target="38" edge="1">
          <mxGeometry relative="1" as="geometry" />
        </mxCell>
        <mxCell id="payfzRqC4_l33kHzJgeO-57" value="Уведомить пользователя&#xa;об произведенной&#xa;оплате" style="" parent="2" vertex="1">
          <mxGeometry x="120" y="610" width="146.38" height="60" as="geometry" />
        </mxCell>
        <mxCell id="38" value="" style="ellipse;shape=endState;fillColor=#000000;strokeColor=#ff0000" parent="2" vertex="1">
          <mxGeometry x="178.19" y="710" width="30" height="30" as="geometry" />
        </mxCell>
        <mxCell id="payfzRqC4_l33kHzJgeO-60" value="Клиент&amp;nbsp; закрыл уведомление&amp;nbsp;" style="text;html=1;strokeColor=none;fillColor=none;align=center;verticalAlign=middle;whiteSpace=wrap;rounded=0;" parent="2" vertex="1">
          <mxGeometry x="211.88" y="710" width="148.12" height="20" as="geometry" />
        </mxCell>
        <mxCell id="payfzRqC4_l33kHzJgeO-64" value="Оплата онлайн" style="text;html=1;strokeColor=none;fillColor=none;align=center;verticalAlign=middle;whiteSpace=wrap;rounded=0;fontColor=#000000;" parent="2" vertex="1">
          <mxGeometry x="185.5" y="240" width="40" height="20" as="geometry" />
        </mxCell>
        <mxCell id="WpDBWfvaGtJAb8BP72D2-39" value="Реквизиты действительны" style="text;html=1;strokeColor=none;fillColor=none;align=center;verticalAlign=middle;whiteSpace=wrap;rounded=0;" vertex="1" parent="2">
          <mxGeometry x="199" y="420" width="40" height="20" as="geometry" />
        </mxCell>
        <mxCell id="WpDBWfvaGtJAb8BP72D2-40" value="Реквизиты не действительны" style="text;html=1;strokeColor=none;fillColor=none;align=center;verticalAlign=middle;whiteSpace=wrap;rounded=0;" vertex="1" parent="2">
          <mxGeometry x="65.5" y="350" width="94.5" height="20" as="geometry" />
        </mxCell>
        <mxCell id="WpDBWfvaGtJAb8BP72D2-41" value="Оплата оффлайн" style="text;html=1;strokeColor=none;fillColor=none;align=center;verticalAlign=middle;whiteSpace=wrap;rounded=0;" vertex="1" parent="2">
          <mxGeometry x="240" y="182" width="71" height="20" as="geometry" />
        </mxCell>
        <mxCell id="WpDBWfvaGtJAb8BP72D2-47" value="Недостаточно средств на счету" style="text;html=1;strokeColor=none;fillColor=none;align=center;verticalAlign=middle;whiteSpace=wrap;rounded=0;" vertex="1" parent="2">
          <mxGeometry x="30" y="520" width="110" height="20" as="geometry" />
        </mxCell>
        <mxCell id="WpDBWfvaGtJAb8BP72D2-48" value="Достаточно средств на счету" style="text;html=1;strokeColor=none;fillColor=none;align=center;verticalAlign=middle;whiteSpace=wrap;rounded=0;" vertex="1" parent="2">
          <mxGeometry x="205.5" y="580" width="114.5" height="20" as="geometry" />
        </mxCell>
        <mxCell id="payfzRqC4_l33kHzJgeO-61" style="edgeStyle=orthogonalEdgeStyle;rounded=0;orthogonalLoop=1;jettySize=auto;html=1;exitX=1;exitY=0.5;exitDx=0;exitDy=0;entryX=0;entryY=0.5;entryDx=0;entryDy=0;labelBackgroundColor=#FF0000;strokeColor=#FF0000;fontColor=#000000;" parent="3" source="payfzRqC4_l33kHzJgeO-44" target="16" edge="1">
          <mxGeometry relative="1" as="geometry" />
        </mxCell>
        <mxCell id="payfzRqC4_l33kHzJgeO-63" style="edgeStyle=orthogonalEdgeStyle;rounded=0;orthogonalLoop=1;jettySize=auto;html=1;exitX=0.5;exitY=1;exitDx=0;exitDy=0;entryX=1;entryY=0;entryDx=0;entryDy=0;labelBackgroundColor=#FF0000;strokeColor=#FF0000;fontColor=#000000;" parent="3" source="16" target="38" edge="1">
          <mxGeometry relative="1" as="geometry">
            <Array as="points">
              <mxPoint x="140" y="680" />
              <mxPoint x="-172" y="680" />
            </Array>
          </mxGeometry>
        </mxCell>
        <mxCell id="4" value="Исключения" style="swimlane;whiteSpace=wrap" parent="1" vertex="1">
          <mxGeometry x="-115.5" y="140" width="280" height="740" as="geometry" />
        </mxCell>
        <mxCell id="WpDBWfvaGtJAb8BP72D2-50" style="edgeStyle=orthogonalEdgeStyle;rounded=0;orthogonalLoop=1;jettySize=auto;html=1;exitX=0.5;exitY=0;exitDx=0;exitDy=0;entryX=0.5;entryY=1;entryDx=0;entryDy=0;strokeColor=#FF0000;" edge="1" parent="4" source="33" target="WpDBWfvaGtJAb8BP72D2-49">
          <mxGeometry relative="1" as="geometry" />
        </mxCell>
        <mxCell id="33" value="Уведомление о&#xa;недействительности &#xa;реквизитов" style="" parent="4" vertex="1">
          <mxGeometry x="130" y="372" width="110" height="50" as="geometry" />
        </mxCell>
        <mxCell id="WpDBWfvaGtJAb8BP72D2-55" style="edgeStyle=orthogonalEdgeStyle;rounded=0;orthogonalLoop=1;jettySize=auto;html=1;exitX=0.5;exitY=0;exitDx=0;exitDy=0;entryX=0.5;entryY=1;entryDx=0;entryDy=0;strokeColor=#FF0000;" edge="1" parent="4" source="payfzRqC4_l33kHzJgeO-55" target="WpDBWfvaGtJAb8BP72D2-49">
          <mxGeometry relative="1" as="geometry">
            <Array as="points">
              <mxPoint x="171" y="460" />
              <mxPoint x="86" y="460" />
              <mxPoint x="86" y="330" />
            </Array>
          </mxGeometry>
        </mxCell>
        <mxCell id="payfzRqC4_l33kHzJgeO-55" value="Уведомление о &#xa;недостатке &#xa;средств" style="" parent="4" vertex="1">
          <mxGeometry x="115.5" y="552" width="110" height="50" as="geometry" />
        </mxCell>
        <mxCell id="WpDBWfvaGtJAb8BP72D2-49" value="" style="rhombus;whiteSpace=wrap;html=1;" vertex="1" parent="4">
          <mxGeometry x="115.5" y="280" width="110" height="50" as="geometry" />
        </mxCell>
        <mxCell id="WpDBWfvaGtJAb8BP72D2-52" value="Продолжить" style="text;html=1;strokeColor=none;fillColor=none;align=center;verticalAlign=middle;whiteSpace=wrap;rounded=0;" vertex="1" parent="4">
          <mxGeometry x="175.5" y="260" width="40" height="20" as="geometry" />
        </mxCell>
        <mxCell id="WpDBWfvaGtJAb8BP72D2-54" value="Выйти" style="text;html=1;strokeColor=none;fillColor=none;align=center;verticalAlign=middle;whiteSpace=wrap;rounded=0;" vertex="1" parent="4">
          <mxGeometry x="75.5" y="273" width="40" height="20" as="geometry" />
        </mxCell>
        <mxCell id="payfzRqC4_l33kHzJgeO-51" style="edgeStyle=orthogonalEdgeStyle;rounded=0;orthogonalLoop=1;jettySize=auto;html=1;exitX=0;exitY=0.5;exitDx=0;exitDy=0;entryX=1;entryY=0.5;entryDx=0;entryDy=0;labelBackgroundColor=#FF0000;strokeColor=#FF0000;fontColor=#FF0000;" parent="1" source="payfzRqC4_l33kHzJgeO-49" target="33" edge="1">
          <mxGeometry relative="1" as="geometry" />
        </mxCell>
        <mxCell id="payfzRqC4_l33kHzJgeO-56" style="edgeStyle=orthogonalEdgeStyle;rounded=0;orthogonalLoop=1;jettySize=auto;html=1;exitX=0;exitY=0.5;exitDx=0;exitDy=0;entryX=1;entryY=0.5;entryDx=0;entryDy=0;labelBackgroundColor=#FF0000;strokeColor=#FF0000;fontColor=#FF0000;" parent="1" source="payfzRqC4_l33kHzJgeO-52" target="payfzRqC4_l33kHzJgeO-55" edge="1">
          <mxGeometry relative="1" as="geometry" />
        </mxCell>
        <mxCell id="WpDBWfvaGtJAb8BP72D2-51" style="edgeStyle=orthogonalEdgeStyle;rounded=0;orthogonalLoop=1;jettySize=auto;html=1;exitX=0.5;exitY=0;exitDx=0;exitDy=0;entryX=0;entryY=0.5;entryDx=0;entryDy=0;strokeColor=#FF0000;" edge="1" parent="1" source="WpDBWfvaGtJAb8BP72D2-49" target="7">
          <mxGeometry relative="1" as="geometry" />
        </mxCell>
        <mxCell id="WpDBWfvaGtJAb8BP72D2-53" style="edgeStyle=orthogonalEdgeStyle;rounded=0;orthogonalLoop=1;jettySize=auto;html=1;exitX=0;exitY=0.5;exitDx=0;exitDy=0;strokeColor=#FF0000;entryX=0;entryY=0.5;entryDx=0;entryDy=0;" edge="1" parent="1" source="WpDBWfvaGtJAb8BP72D2-49" target="38">
          <mxGeometry relative="1" as="geometry">
            <mxPoint x="210" y="810.0000000000002" as="targetPoint" />
            <Array as="points">
              <mxPoint x="-100" y="445" />
              <mxPoint x="-100" y="865" />
            </Array>
          </mxGeometry>
        </mxCell>
      </root>
    </mxGraphModel>
  </diagram>
  <diagram id="twCJopP6pjNZeUdfh6I7" name="Page-2">
    <mxGraphModel dx="742" dy="443" grid="1" gridSize="10" guides="1" tooltips="1" connect="1" arrows="1" fold="1" page="1" pageScale="1" pageWidth="827" pageHeight="1169" math="0" shadow="0">
      <root>
        <mxCell id="E5rrJ6HUVpT2nXBQITvH-0" />
        <mxCell id="E5rrJ6HUVpT2nXBQITvH-1" parent="E5rrJ6HUVpT2nXBQITvH-0" />
        <mxCell id="E5rrJ6HUVpT2nXBQITvH-2" value="Клиент" style="shape=umlActor;verticalLabelPosition=bottom;verticalAlign=top;html=1;" vertex="1" parent="E5rrJ6HUVpT2nXBQITvH-1">
          <mxGeometry x="60" y="10" width="30" height="60" as="geometry" />
        </mxCell>
        <mxCell id="hGbeXIHVRnuwIxVUk1rJ-0" value="" style="html=1;points=[];perimeter=orthogonalPerimeter;" vertex="1" parent="E5rrJ6HUVpT2nXBQITvH-1">
          <mxGeometry x="70" y="120" width="10" height="50" as="geometry" />
        </mxCell>
        <mxCell id="hGbeXIHVRnuwIxVUk1rJ-1" value="Менеджер" style="shape=umlActor;verticalLabelPosition=bottom;verticalAlign=top;html=1;" vertex="1" parent="E5rrJ6HUVpT2nXBQITvH-1">
          <mxGeometry x="390" y="10" width="30" height="60" as="geometry" />
        </mxCell>
        <mxCell id="bqVrj4SfDNWQZIhXisQ--2" value="" style="endArrow=open;endFill=1;endSize=12;html=1;exitX=0.933;exitY=0.088;exitDx=0;exitDy=0;exitPerimeter=0;entryX=1;entryY=0.638;entryDx=0;entryDy=0;entryPerimeter=0;edgeStyle=elbowEdgeStyle;" edge="1" parent="E5rrJ6HUVpT2nXBQITvH-1" source="hGbeXIHVRnuwIxVUk1rJ-0" target="hGbeXIHVRnuwIxVUk1rJ-0">
          <mxGeometry width="160" relative="1" as="geometry">
            <mxPoint x="330" y="250" as="sourcePoint" />
            <mxPoint x="490" y="250" as="targetPoint" />
            <Array as="points">
              <mxPoint x="180" y="127" />
              <mxPoint x="260" y="150" />
            </Array>
          </mxGeometry>
        </mxCell>
        <mxCell id="bqVrj4SfDNWQZIhXisQ--3" value="Оплата картой" style="text;html=1;strokeColor=none;fillColor=none;align=center;verticalAlign=middle;whiteSpace=wrap;rounded=0;" vertex="1" parent="E5rrJ6HUVpT2nXBQITvH-1">
          <mxGeometry x="100" y="100" width="40" height="20" as="geometry" />
        </mxCell>
        <mxCell id="bqVrj4SfDNWQZIhXisQ--4" value="" style="html=1;points=[];perimeter=orthogonalPerimeter;" vertex="1" parent="E5rrJ6HUVpT2nXBQITvH-1">
          <mxGeometry x="70" y="200" width="10" height="50" as="geometry" />
        </mxCell>
        <mxCell id="bqVrj4SfDNWQZIhXisQ--6" value="Ввод реквизитов" style="text;html=1;strokeColor=none;fillColor=none;align=center;verticalAlign=middle;whiteSpace=wrap;rounded=0;" vertex="1" parent="E5rrJ6HUVpT2nXBQITvH-1">
          <mxGeometry x="110" y="190" width="40" height="20" as="geometry" />
        </mxCell>
        <mxCell id="XE6XGJD_LZm9p9EPuLdF-0" value="" style="endArrow=open;endFill=1;endSize=12;html=1;strokeColor=#000000;exitX=1.133;exitY=0.22;exitDx=0;exitDy=0;exitPerimeter=0;" edge="1" parent="E5rrJ6HUVpT2nXBQITvH-1" source="bqVrj4SfDNWQZIhXisQ--4" target="XE6XGJD_LZm9p9EPuLdF-1">
          <mxGeometry width="160" relative="1" as="geometry">
            <mxPoint x="240" y="220" as="sourcePoint" />
            <mxPoint x="400" y="220" as="targetPoint" />
          </mxGeometry>
        </mxCell>
        <mxCell id="XE6XGJD_LZm9p9EPuLdF-1" value="" style="html=1;points=[];perimeter=orthogonalPerimeter;" vertex="1" parent="E5rrJ6HUVpT2nXBQITvH-1">
          <mxGeometry x="400" y="200" width="10" height="50" as="geometry" />
        </mxCell>
        <mxCell id="XE6XGJD_LZm9p9EPuLdF-3" value="Уведомление" style="html=1;verticalAlign=bottom;endArrow=open;dashed=1;endSize=8;strokeColor=#000000;exitX=-0.133;exitY=0.78;exitDx=0;exitDy=0;exitPerimeter=0;" edge="1" parent="E5rrJ6HUVpT2nXBQITvH-1" source="XE6XGJD_LZm9p9EPuLdF-1" target="bqVrj4SfDNWQZIhXisQ--4">
          <mxGeometry relative="1" as="geometry">
            <mxPoint x="360" y="220" as="sourcePoint" />
            <mxPoint x="280" y="220" as="targetPoint" />
            <Array as="points">
              <mxPoint x="270" y="240" />
            </Array>
          </mxGeometry>
        </mxCell>
        <mxCell id="XE6XGJD_LZm9p9EPuLdF-4" value="" style="html=1;points=[];perimeter=orthogonalPerimeter;" vertex="1" parent="E5rrJ6HUVpT2nXBQITvH-1">
          <mxGeometry x="70" y="300" width="10" height="50" as="geometry" />
        </mxCell>
        <mxCell id="XE6XGJD_LZm9p9EPuLdF-5" value="" style="endArrow=open;endFill=1;endSize=12;html=1;exitX=0.933;exitY=0.088;exitDx=0;exitDy=0;exitPerimeter=0;entryX=1;entryY=0.638;entryDx=0;entryDy=0;entryPerimeter=0;edgeStyle=elbowEdgeStyle;" edge="1" parent="E5rrJ6HUVpT2nXBQITvH-1" source="XE6XGJD_LZm9p9EPuLdF-4" target="XE6XGJD_LZm9p9EPuLdF-4">
          <mxGeometry width="160" relative="1" as="geometry">
            <mxPoint x="330" y="430" as="sourcePoint" />
            <mxPoint x="490" y="430" as="targetPoint" />
            <Array as="points">
              <mxPoint x="180" y="307" />
              <mxPoint x="260" y="330" />
            </Array>
          </mxGeometry>
        </mxCell>
        <mxCell id="XE6XGJD_LZm9p9EPuLdF-6" value="Оплата наличными" style="text;html=1;strokeColor=none;fillColor=none;align=center;verticalAlign=middle;whiteSpace=wrap;rounded=0;" vertex="1" parent="E5rrJ6HUVpT2nXBQITvH-1">
          <mxGeometry x="100" y="280" width="40" height="20" as="geometry" />
        </mxCell>
      </root>
    </mxGraphModel>
  </diagram>
</mxfile>
